# xmcd
#
# Track frame offsets: 
#        150
#        37552
#        65727
#        84857
#        109112
#        114885
#
# Disc length: 1707 seconds
#
# Revision: 2
# Processed by: cddbd v1.5.2PL0 Copyright (c) Steve Scherf et al.
# Submitted via: ExactAudioCopy v0.99pb4
#
DISCID=3a06a906
DTITLE=The Doors - The Doors live
DYEAR=1900
DGENRE=Rock
TTITLE0=Light My Fire 
TTITLE1=Little Red Rooster
TTITLE2=Unknown Soldier
TTITLE3=Moonlight Drive And Horse Latitudes
TTITLE4=Spanish Caravan
TTITLE5=You Make Me Feel
EXTD=
EXTT0=
EXTT1=
EXTT2=
EXTT3=
EXTT4=
EXTT5=
PLAYORDER=
